<svg width="17" height="26" viewBox="0 0 17 26" fill="none" xmlns="http://www.w3.org/2000/svg">
<g clip-path="url(#clip0_4_848)">
<path d="M3.45032 19.9822C3.5702 17.3646 2.71022 15.1311 0.868652 13.2817L8.22797 0.243164M13.0299 19.9822C12.9101 17.3646 13.7709 15.1311 15.6116 13.2817L8.25229 0.243164M8.27488 0.495616V12.0145M3.47464 20.4016H13.0299V25.4338H3.47464V20.4016Z" stroke="#000"/>
<path d="M9.55527 13.2725C9.55527 12.5777 8.9719 12.0144 8.25228 12.0144C7.53265 12.0144 6.94928 12.5777 6.94928 13.2725C6.94928 13.9673 7.53265 14.5305 8.25228 14.5305C8.9719 14.5305 9.55527 13.9673 9.55527 13.2725Z" stroke="#000"/>
<path d="M8.53984 0.769845L8.24362 0.222168L7.92743 0.769845" stroke="#000"/>
</g>
<defs>
<clipPath id="clip0_4_848">
<rect width="16.5046" height="26" fill="white"/>
</clipPath>
</defs>
</svg>
