<svg width="14" height="14" viewBox="0 0 14 14" fill="none" xmlns="http://www.w3.org/2000/svg">
<path d="M7.09884 0.699951C3.56519 0.699951 0.700195 3.56495 0.700195 7.0986C0.700195 10.0969 2.76482 12.6057 5.54824 13.3C5.51837 13.2136 5.49918 13.1133 5.49918 12.9891V11.8954C5.2395 11.8954 4.80439 11.8954 4.69508 11.8954C4.25731 11.8954 3.86806 11.7072 3.6793 11.3574C3.46974 10.9687 3.43348 10.3742 2.91413 10.0105C2.76003 9.88947 2.87733 9.75137 3.0549 9.77003C3.38283 9.86281 3.65477 10.0878 3.91072 10.4216C4.16559 10.756 4.28557 10.8317 4.76174 10.8317C4.99262 10.8317 5.33815 10.8183 5.66341 10.7672C5.83831 10.323 6.14064 9.914 6.51017 9.72098C4.37942 9.50182 3.36256 8.44178 3.36256 7.00262C3.36256 6.38302 3.62651 5.78368 4.07495 5.27872C3.92778 4.77749 3.74275 3.75531 4.13147 3.36605C5.0902 3.36605 5.66981 3.98779 5.80898 4.15575C6.28675 3.99206 6.81143 3.89928 7.36278 3.89928C7.9152 3.89928 8.44202 3.99206 8.92085 4.15682C9.05843 3.98992 9.63857 3.36605 10.5994 3.36605C10.9897 3.75584 10.8026 4.78229 10.6538 5.28245C11.0996 5.78634 11.3619 6.38408 11.3619 7.00262C11.3619 8.44071 10.3467 9.50022 8.21914 9.72044C8.80461 10.026 9.23172 10.8845 9.23172 11.5313V12.9891C9.23172 13.0445 9.21946 13.0845 9.21306 13.132C11.7064 12.258 13.4975 9.89054 13.4975 7.0986C13.4975 3.56495 10.6325 0.699951 7.09884 0.699951Z" fill="#000"/>
</svg>
