<svg width="56" height="14" viewBox="0 0 56 14" fill="none" xmlns="http://www.w3.org/2000/svg">
<g clip-path="url(#clip0_4_807)">
<path d="M6.21434 12C9.07438 12 11.3929 9.76142 11.3929 7C11.3929 4.23858 9.07438 2 6.21434 2C3.35429 2 1.03577 4.23858 1.03577 7C1.03577 9.76142 3.35429 12 6.21434 12Z" stroke="#1C1C1C" stroke-opacity="0.5"/>
<path fill-rule="evenodd" clip-rule="evenodd" d="M27.9643 0.635986L34.5556 6.99999L27.9643 13.364L21.373 6.99999L27.9643 0.635986Z" stroke="#1C1C1C" stroke-opacity="0.5"/>
<path d="M49.7143 12C52.5744 12 54.8929 9.76142 54.8929 7C54.8929 4.23858 52.5744 2 49.7143 2C46.8543 2 44.5358 4.23858 44.5358 7C44.5358 9.76142 46.8543 12 49.7143 12Z" stroke="#1C1C1C" stroke-opacity="0.5"/>
<path d="M34.6965 7H44.5358M11.3929 7H21.2322H11.3929Z" stroke="#1C1C1C" stroke-opacity="0.5"/>
</g>
<defs>
<clipPath id="clip0_4_807">
<rect width="55.9286" height="14" fill="white"/>
</clipPath>
</defs>
</svg>
