<svg width="13" height="12" viewBox="0 0 13 12" fill="none" xmlns="http://www.w3.org/2000/svg">
<path d="M13 7.35717V12H10.2138V7.66773C10.2138 6.57996 9.81099 5.83727 8.80148 5.83727C8.03191 5.83727 7.5737 6.33763 7.37309 6.82152C7.29926 6.99405 7.28 7.23561 7.28 7.47794V11.9992H4.49383C4.49383 11.9992 4.53074 4.66322 4.49383 3.90327H7.2808V5.05065L7.26235 5.07653H7.2808V5.05065C7.65074 4.5001 8.31197 3.7127 9.79253 3.7127C11.6254 3.7127 13 4.87027 13 7.35717ZM1.57685 0.000784299C0.623519 3.66114e-08 0 0.603882 0 1.39834C0 2.17554 0.605864 2.79825 1.54074 2.79825H1.5592C2.53019 2.79825 3.13525 2.17633 3.13525 1.39834C3.11679 0.603882 2.53099 0 1.57685 0V0.000784299ZM0.165309 12H2.95148V3.90249H0.165309V11.9984V12Z" fill="#1c1c1c"/>
</svg>
